ISO-10303-21;
HEADER;
/* Generated by software containing ST-Developer
 * from STEP Tools, Inc. (www.steptools.com) 
 */
/* OPTION: strings as raw bytes, not using required /X/ escapes */

FILE_DESCRIPTION(
/* description */ ('Unknown'),
/* implementation_level */ '2;1');

FILE_NAME(
/* name */ 'Silicon Pad Mold',
/* time_stamp */ '2025-08-24T00:45:30+02:00',
/* author */ ('Unknown'),
/* organization */ ('Unknown'),
/* preprocessor_version */ 'ST-DEVELOPER v20',
/* originating_system */ 'Solid Edge',
/* authorisation */ 'Unknown');

FILE_SCHEMA (('AUTOMOTIVE_DESIGN {1 0 10303 214 3 1 1}'));
ENDSEC;

DATA;
#10=PROPERTY_DEFINITION_REPRESENTATION(#14,#12);
#11=PROPERTY_DEFINITION_REPRESENTATION(#15,#13);
#12=REPRESENTATION('',(#16),#1447);
#13=REPRESENTATION('',(#17),#1447);
#14=PROPERTY_DEFINITION('pmi validation property','',#1452);
#15=PROPERTY_DEFINITION('pmi validation property','',#1452);
#16=VALUE_REPRESENTATION_ITEM('number of annotations',COUNT_MEASURE(0.));
#17=VALUE_REPRESENTATION_ITEM('number of views',COUNT_MEASURE(0.));
#18=SHAPE_REPRESENTATION_RELATIONSHIP('','',#923,#19);
#19=ADVANCED_BREP_SHAPE_REPRESENTATION('',(#920,#921),#1447);
#20=ORIENTED_EDGE('',*,*,#262,.F.);
#21=ORIENTED_EDGE('',*,*,#263,.T.);
#22=ORIENTED_EDGE('',*,*,#264,.T.);
#23=ORIENTED_EDGE('',*,*,#265,.T.);
#24=ORIENTED_EDGE('',*,*,#264,.F.);
#25=ORIENTED_EDGE('',*,*,#266,.T.);
#26=ORIENTED_EDGE('',*,*,#267,.T.);
#27=ORIENTED_EDGE('',*,*,#268,.T.);
#28=ORIENTED_EDGE('',*,*,#267,.F.);
#29=ORIENTED_EDGE('',*,*,#269,.T.);
#30=ORIENTED_EDGE('',*,*,#270,.T.);
#31=ORIENTED_EDGE('',*,*,#271,.T.);
#32=ORIENTED_EDGE('',*,*,#270,.F.);
#33=ORIENTED_EDGE('',*,*,#272,.T.);
#34=ORIENTED_EDGE('',*,*,#262,.T.);
#35=ORIENTED_EDGE('',*,*,#273,.T.);
#36=ORIENTED_EDGE('',*,*,#274,.T.);
#37=ORIENTED_EDGE('',*,*,#275,.T.);
#38=ORIENTED_EDGE('',*,*,#276,.T.);
#39=ORIENTED_EDGE('',*,*,#277,.T.);
#40=ORIENTED_EDGE('',*,*,#278,.T.);
#41=ORIENTED_EDGE('',*,*,#279,.T.);
#42=ORIENTED_EDGE('',*,*,#280,.T.);
#43=ORIENTED_EDGE('',*,*,#281,.T.);
#44=ORIENTED_EDGE('',*,*,#282,.F.);
#45=ORIENTED_EDGE('',*,*,#277,.F.);
#46=ORIENTED_EDGE('',*,*,#283,.F.);
#47=ORIENTED_EDGE('',*,*,#266,.F.);
#48=ORIENTED_EDGE('',*,*,#283,.T.);
#49=ORIENTED_EDGE('',*,*,#276,.F.);
#50=ORIENTED_EDGE('',*,*,#284,.F.);
#51=ORIENTED_EDGE('',*,*,#269,.F.);
#52=ORIENTED_EDGE('',*,*,#282,.T.);
#53=ORIENTED_EDGE('',*,*,#263,.F.);
#54=ORIENTED_EDGE('',*,*,#285,.F.);
#55=ORIENTED_EDGE('',*,*,#274,.F.);
#56=ORIENTED_EDGE('',*,*,#284,.T.);
#57=ORIENTED_EDGE('',*,*,#275,.F.);
#58=ORIENTED_EDGE('',*,*,#285,.T.);
#59=ORIENTED_EDGE('',*,*,#272,.F.);
#60=ORIENTED_EDGE('',*,*,#286,.F.);
#61=ORIENTED_EDGE('',*,*,#265,.F.);
#62=ORIENTED_EDGE('',*,*,#287,.F.);
#63=ORIENTED_EDGE('',*,*,#281,.F.);
#64=ORIENTED_EDGE('',*,*,#287,.T.);
#65=ORIENTED_EDGE('',*,*,#268,.F.);
#66=ORIENTED_EDGE('',*,*,#288,.F.);
#67=ORIENTED_EDGE('',*,*,#278,.F.);
#68=ORIENTED_EDGE('',*,*,#286,.T.);
#69=ORIENTED_EDGE('',*,*,#280,.F.);
#70=ORIENTED_EDGE('',*,*,#289,.F.);
#71=ORIENTED_EDGE('',*,*,#273,.F.);
#72=ORIENTED_EDGE('',*,*,#288,.T.);
#73=ORIENTED_EDGE('',*,*,#271,.F.);
#74=ORIENTED_EDGE('',*,*,#289,.T.);
#75=ORIENTED_EDGE('',*,*,#279,.F.);
#76=ORIENTED_EDGE('',*,*,#290,.T.);
#77=ORIENTED_EDGE('',*,*,#291,.T.);
#78=ORIENTED_EDGE('',*,*,#292,.T.);
#79=ORIENTED_EDGE('',*,*,#293,.F.);
#80=ORIENTED_EDGE('',*,*,#294,.F.);
#81=ORIENTED_EDGE('',*,*,#295,.F.);
#82=ORIENTED_EDGE('',*,*,#296,.F.);
#83=ORIENTED_EDGE('',*,*,#297,.F.);
#84=ORIENTED_EDGE('',*,*,#298,.T.);
#85=ORIENTED_EDGE('',*,*,#299,.F.);
#86=ORIENTED_EDGE('',*,*,#300,.F.);
#87=ORIENTED_EDGE('',*,*,#301,.F.);
#88=ORIENTED_EDGE('',*,*,#302,.T.);
#89=ORIENTED_EDGE('',*,*,#298,.F.);
#90=ORIENTED_EDGE('',*,*,#303,.F.);
#91=ORIENTED_EDGE('',*,*,#304,.F.);
#92=ORIENTED_EDGE('',*,*,#305,.T.);
#93=ORIENTED_EDGE('',*,*,#306,.F.);
#94=ORIENTED_EDGE('',*,*,#307,.F.);
#95=ORIENTED_EDGE('',*,*,#308,.T.);
#96=ORIENTED_EDGE('',*,*,#295,.T.);
#97=ORIENTED_EDGE('',*,*,#309,.F.);
#98=ORIENTED_EDGE('',*,*,#293,.T.);
#99=ORIENTED_EDGE('',*,*,#310,.F.);
#100=ORIENTED_EDGE('',*,*,#311,.T.);
#101=ORIENTED_EDGE('',*,*,#312,.T.);
#102=ORIENTED_EDGE('',*,*,#313,.F.);
#103=ORIENTED_EDGE('',*,*,#314,.T.);
#104=ORIENTED_EDGE('',*,*,#315,.F.);
#105=ORIENTED_EDGE('',*,*,#316,.F.);
#106=ORIENTED_EDGE('',*,*,#317,.F.);
#107=ORIENTED_EDGE('',*,*,#318,.F.);
#108=ORIENTED_EDGE('',*,*,#313,.T.);
#109=ORIENTED_EDGE('',*,*,#319,.F.);
#110=ORIENTED_EDGE('',*,*,#320,.T.);
#111=ORIENTED_EDGE('',*,*,#321,.F.);
#112=ORIENTED_EDGE('',*,*,#305,.F.);
#113=ORIENTED_EDGE('',*,*,#322,.F.);
#114=ORIENTED_EDGE('',*,*,#303,.T.);
#115=ORIENTED_EDGE('',*,*,#301,.T.);
#116=ORIENTED_EDGE('',*,*,#323,.F.);
#117=ORIENTED_EDGE('',*,*,#324,.T.);
#118=ORIENTED_EDGE('',*,*,#325,.T.);
#119=ORIENTED_EDGE('',*,*,#326,.F.);
#120=ORIENTED_EDGE('',*,*,#317,.T.);
#121=ORIENTED_EDGE('',*,*,#327,.T.);
#122=ORIENTED_EDGE('',*,*,#328,.T.);
#123=ORIENTED_EDGE('',*,*,#329,.T.);
#124=ORIENTED_EDGE('',*,*,#330,.F.);
#125=ORIENTED_EDGE('',*,*,#323,.T.);
#126=ORIENTED_EDGE('',*,*,#300,.T.);
#127=ORIENTED_EDGE('',*,*,#331,.T.);
#128=ORIENTED_EDGE('',*,*,#332,.T.);
#129=ORIENTED_EDGE('',*,*,#333,.T.);
#130=ORIENTED_EDGE('',*,*,#334,.F.);
#131=ORIENTED_EDGE('',*,*,#335,.T.);
#132=ORIENTED_EDGE('',*,*,#336,.T.);
#133=ORIENTED_EDGE('',*,*,#337,.T.);
#134=ORIENTED_EDGE('',*,*,#338,.T.);
#135=ORIENTED_EDGE('',*,*,#339,.T.);
#136=ORIENTED_EDGE('',*,*,#340,.F.);
#137=ORIENTED_EDGE('',*,*,#341,.F.);
#138=ORIENTED_EDGE('',*,*,#342,.T.);
#139=ORIENTED_EDGE('',*,*,#343,.T.);
#140=ORIENTED_EDGE('',*,*,#344,.T.);
#141=ORIENTED_EDGE('',*,*,#314,.F.);
#142=ORIENTED_EDGE('',*,*,#318,.T.);
#143=ORIENTED_EDGE('',*,*,#326,.T.);
#144=ORIENTED_EDGE('',*,*,#345,.T.);
#145=ORIENTED_EDGE('',*,*,#346,.T.);
#146=ORIENTED_EDGE('',*,*,#347,.T.);
#147=ORIENTED_EDGE('',*,*,#348,.T.);
#148=ORIENTED_EDGE('',*,*,#349,.F.);
#149=ORIENTED_EDGE('',*,*,#350,.T.);
#150=ORIENTED_EDGE('',*,*,#351,.T.);
#151=ORIENTED_EDGE('',*,*,#352,.F.);
#152=ORIENTED_EDGE('',*,*,#324,.F.);
#153=ORIENTED_EDGE('',*,*,#330,.T.);
#154=ORIENTED_EDGE('',*,*,#353,.F.);
#155=ORIENTED_EDGE('',*,*,#328,.F.);
#156=ORIENTED_EDGE('',*,*,#354,.T.);
#157=ORIENTED_EDGE('',*,*,#336,.F.);
#158=ORIENTED_EDGE('',*,*,#355,.T.);
#159=ORIENTED_EDGE('',*,*,#315,.T.);
#160=ORIENTED_EDGE('',*,*,#344,.F.);
#161=ORIENTED_EDGE('',*,*,#356,.T.);
#162=ORIENTED_EDGE('',*,*,#337,.F.);
#163=ORIENTED_EDGE('',*,*,#354,.F.);
#164=ORIENTED_EDGE('',*,*,#343,.F.);
#165=ORIENTED_EDGE('',*,*,#342,.F.);
#166=ORIENTED_EDGE('',*,*,#357,.F.);
#167=ORIENTED_EDGE('',*,*,#358,.T.);
#168=ORIENTED_EDGE('',*,*,#338,.F.);
#169=ORIENTED_EDGE('',*,*,#356,.F.);
#170=ORIENTED_EDGE('',*,*,#306,.T.);
#171=ORIENTED_EDGE('',*,*,#321,.T.);
#172=ORIENTED_EDGE('',*,*,#359,.T.);
#173=ORIENTED_EDGE('',*,*,#360,.T.);
#174=ORIENTED_EDGE('',*,*,#334,.T.);
#175=ORIENTED_EDGE('',*,*,#361,.T.);
#176=ORIENTED_EDGE('',*,*,#349,.T.);
#177=ORIENTED_EDGE('',*,*,#362,.T.);
#178=ORIENTED_EDGE('',*,*,#363,.F.);
#179=ORIENTED_EDGE('',*,*,#307,.T.);
#180=ORIENTED_EDGE('',*,*,#360,.F.);
#181=ORIENTED_EDGE('',*,*,#364,.F.);
#182=ORIENTED_EDGE('',*,*,#365,.T.);
#183=ORIENTED_EDGE('',*,*,#366,.F.);
#184=ORIENTED_EDGE('',*,*,#340,.T.);
#185=ORIENTED_EDGE('',*,*,#325,.F.);
#186=ORIENTED_EDGE('',*,*,#351,.F.);
#187=ORIENTED_EDGE('',*,*,#367,.T.);
#188=ORIENTED_EDGE('',*,*,#332,.F.);
#189=ORIENTED_EDGE('',*,*,#368,.T.);
#190=ORIENTED_EDGE('',*,*,#368,.F.);
#191=ORIENTED_EDGE('',*,*,#339,.F.);
#192=ORIENTED_EDGE('',*,*,#358,.F.);
#193=ORIENTED_EDGE('',*,*,#369,.F.);
#194=ORIENTED_EDGE('',*,*,#370,.T.);
#195=ORIENTED_EDGE('',*,*,#371,.T.);
#196=ORIENTED_EDGE('',*,*,#372,.T.);
#197=ORIENTED_EDGE('',*,*,#311,.F.);
#198=ORIENTED_EDGE('',*,*,#355,.F.);
#199=ORIENTED_EDGE('',*,*,#335,.F.);
#200=ORIENTED_EDGE('',*,*,#362,.F.);
#201=ORIENTED_EDGE('',*,*,#352,.T.);
#202=ORIENTED_EDGE('',*,*,#373,.F.);
#203=ORIENTED_EDGE('',*,*,#369,.T.);
#204=ORIENTED_EDGE('',*,*,#357,.T.);
#205=ORIENTED_EDGE('',*,*,#341,.T.);
#206=ORIENTED_EDGE('',*,*,#366,.T.);
#207=ORIENTED_EDGE('',*,*,#320,.F.);
#208=ORIENTED_EDGE('',*,*,#374,.F.);
#209=ORIENTED_EDGE('',*,*,#371,.F.);
#210=ORIENTED_EDGE('',*,*,#375,.T.);
#211=ORIENTED_EDGE('',*,*,#364,.T.);
#212=ORIENTED_EDGE('',*,*,#359,.F.);
#213=ORIENTED_EDGE('',*,*,#294,.T.);
#214=ORIENTED_EDGE('',*,*,#376,.T.);
#215=ORIENTED_EDGE('',*,*,#290,.F.);
#216=ORIENTED_EDGE('',*,*,#309,.T.);
#217=ORIENTED_EDGE('',*,*,#299,.T.);
#218=ORIENTED_EDGE('',*,*,#302,.F.);
#219=ORIENTED_EDGE('',*,*,#377,.T.);
#220=ORIENTED_EDGE('',*,*,#353,.T.);
#221=ORIENTED_EDGE('',*,*,#331,.F.);
#222=ORIENTED_EDGE('',*,*,#292,.F.);
#223=ORIENTED_EDGE('',*,*,#378,.T.);
#224=ORIENTED_EDGE('',*,*,#296,.T.);
#225=ORIENTED_EDGE('',*,*,#310,.T.);
#226=ORIENTED_EDGE('',*,*,#327,.F.);
#227=ORIENTED_EDGE('',*,*,#316,.T.);
#228=ORIENTED_EDGE('',*,*,#304,.T.);
#229=ORIENTED_EDGE('',*,*,#322,.T.);
#230=ORIENTED_EDGE('',*,*,#308,.F.);
#231=ORIENTED_EDGE('',*,*,#363,.T.);
#232=ORIENTED_EDGE('',*,*,#329,.F.);
#233=ORIENTED_EDGE('',*,*,#377,.F.);
#234=ORIENTED_EDGE('',*,*,#372,.F.);
#235=ORIENTED_EDGE('',*,*,#374,.T.);
#236=ORIENTED_EDGE('',*,*,#319,.T.);
#237=ORIENTED_EDGE('',*,*,#312,.F.);
#238=ORIENTED_EDGE('',*,*,#370,.F.);
#239=ORIENTED_EDGE('',*,*,#373,.T.);
#240=ORIENTED_EDGE('',*,*,#365,.F.);
#241=ORIENTED_EDGE('',*,*,#375,.F.);
#242=ORIENTED_EDGE('',*,*,#297,.T.);
#243=ORIENTED_EDGE('',*,*,#378,.F.);
#244=ORIENTED_EDGE('',*,*,#291,.F.);
#245=ORIENTED_EDGE('',*,*,#376,.F.);
#246=ORIENTED_EDGE('',*,*,#379,.F.);
#247=ORIENTED_EDGE('',*,*,#348,.F.);
#248=ORIENTED_EDGE('',*,*,#380,.F.);
#249=ORIENTED_EDGE('',*,*,#350,.F.);
#250=ORIENTED_EDGE('',*,*,#380,.T.);
#251=ORIENTED_EDGE('',*,*,#347,.F.);
#252=ORIENTED_EDGE('',*,*,#381,.F.);
#253=ORIENTED_EDGE('',*,*,#367,.F.);
#254=ORIENTED_EDGE('',*,*,#379,.T.);
#255=ORIENTED_EDGE('',*,*,#361,.F.);
#256=ORIENTED_EDGE('',*,*,#382,.F.);
#257=ORIENTED_EDGE('',*,*,#345,.F.);
#258=ORIENTED_EDGE('',*,*,#381,.T.);
#259=ORIENTED_EDGE('',*,*,#346,.F.);
#260=ORIENTED_EDGE('',*,*,#382,.T.);
#261=ORIENTED_EDGE('',*,*,#333,.F.);
#262=EDGE_CURVE('',#383,#384,#459,.T.);
#263=EDGE_CURVE('',#383,#385,#460,.T.);
#264=EDGE_CURVE('',#385,#386,#461,.T.);
#265=EDGE_CURVE('',#386,#384,#462,.T.);
#266=EDGE_CURVE('',#385,#387,#463,.T.);
#267=EDGE_CURVE('',#387,#388,#464,.T.);
#268=EDGE_CURVE('',#388,#386,#465,.T.);
#269=EDGE_CURVE('',#387,#389,#466,.T.);
#270=EDGE_CURVE('',#389,#390,#467,.T.);
#271=EDGE_CURVE('',#390,#388,#468,.T.);
#272=EDGE_CURVE('',#389,#383,#469,.T.);
#273=EDGE_CURVE('',#384,#390,#470,.T.);
#274=EDGE_CURVE('',#391,#392,#471,.T.);
#275=EDGE_CURVE('',#392,#393,#472,.T.);
#276=EDGE_CURVE('',#393,#394,#473,.T.);
#277=EDGE_CURVE('',#394,#391,#474,.T.);
#278=EDGE_CURVE('',#395,#396,#475,.T.);
#279=EDGE_CURVE('',#396,#397,#476,.T.);
#280=EDGE_CURVE('',#397,#398,#477,.T.);
#281=EDGE_CURVE('',#398,#395,#478,.T.);
#282=EDGE_CURVE('',#391,#385,#479,.T.);
#283=EDGE_CURVE('',#387,#394,#480,.F.);
#284=EDGE_CURVE('',#389,#393,#481,.F.);
#285=EDGE_CURVE('',#392,#383,#482,.F.);
#286=EDGE_CURVE('',#384,#398,#483,.T.);
#287=EDGE_CURVE('',#395,#386,#484,.F.);
#288=EDGE_CURVE('',#396,#388,#485,.F.);
#289=EDGE_CURVE('',#390,#397,#486,.F.);
#290=EDGE_CURVE('',#399,#400,#487,.T.);
#291=EDGE_CURVE('',#400,#401,#488,.T.);
#292=EDGE_CURVE('',#401,#402,#489,.T.);
#293=EDGE_CURVE('',#399,#402,#490,.T.);
#294=EDGE_CURVE('',#403,#404,#491,.T.);
#295=EDGE_CURVE('',#405,#403,#492,.T.);
#296=EDGE_CURVE('',#406,#405,#493,.T.);
#297=EDGE_CURVE('',#404,#406,#494,.T.);
#298=EDGE_CURVE('',#407,#408,#495,.T.);
#299=EDGE_CURVE('',#409,#408,#496,.T.);
#300=EDGE_CURVE('',#410,#409,#497,.T.);
#301=EDGE_CURVE('',#407,#410,#498,.T.);
#302=EDGE_CURVE('',#411,#408,#499,.T.);
#303=EDGE_CURVE('',#412,#407,#500,.T.);
#304=EDGE_CURVE('',#413,#412,#501,.T.);
#305=EDGE_CURVE('',#413,#414,#502,.T.);
#306=EDGE_CURVE('',#415,#414,#503,.T.);
#307=EDGE_CURVE('',#416,#415,#504,.T.);
#308=EDGE_CURVE('',#416,#411,#505,.T.);
#309=EDGE_CURVE('',#399,#403,#506,.T.);
#310=EDGE_CURVE('',#405,#402,#507,.T.);
#311=EDGE_CURVE('',#417,#418,#508,.T.);
#312=EDGE_CURVE('',#418,#419,#509,.T.);
#313=EDGE_CURVE('',#420,#419,#510,.T.);
#314=EDGE_CURVE('',#420,#421,#511,.T.);
#315=EDGE_CURVE('',#417,#421,#512,.T.);
#316=EDGE_CURVE('',#422,#413,#513,.T.);
#317=EDGE_CURVE('',#423,#422,#514,.T.);
#318=EDGE_CURVE('',#420,#423,#515,.T.);
#319=EDGE_CURVE('',#424,#419,#516,.T.);
#320=EDGE_CURVE('',#424,#425,#517,.T.);
#321=EDGE_CURVE('',#414,#425,#518,.T.);
#322=EDGE_CURVE('',#412,#426,#519,.T.);
#323=EDGE_CURVE('',#427,#410,#520,.T.);
#324=EDGE_CURVE('',#427,#426,#521,.T.);
#325=EDGE_CURVE('',#428,#429,#522,.F.);
#326=EDGE_CURVE('',#423,#429,#523,.T.);
#327=EDGE_CURVE('',#422,#426,#524,.T.);
#328=EDGE_CURVE('',#426,#430,#525,.T.);
#329=EDGE_CURVE('',#430,#428,#526,.T.);
#330=EDGE_CURVE('',#427,#431,#527,.T.);
#331=EDGE_CURVE('',#409,#431,#528,.T.);
#332=EDGE_CURVE('',#432,#433,#529,.T.);
#333=EDGE_CURVE('',#433,#434,#530,.T.);
#334=EDGE_CURVE('',#435,#434,#531,.T.);
#335=EDGE_CURVE('',#435,#436,#532,.T.);
#336=EDGE_CURVE('',#436,#437,#533,.T.);
#337=EDGE_CURVE('',#437,#438,#534,.T.);
#338=EDGE_CURVE('',#438,#439,#535,.T.);
#339=EDGE_CURVE('',#439,#432,#536,.T.);
#340=EDGE_CURVE('',#440,#429,#537,.T.);
#341=EDGE_CURVE('',#441,#440,#538,.T.);
#342=EDGE_CURVE('',#441,#442,#539,.T.);
#343=EDGE_CURVE('',#442,#443,#540,.T.);
#344=EDGE_CURVE('',#443,#421,#541,.T.);
#345=EDGE_CURVE('',#444,#445,#542,.T.);
#346=EDGE_CURVE('',#445,#446,#543,.T.);
#347=EDGE_CURVE('',#446,#447,#544,.T.);
#348=EDGE_CURVE('',#447,#444,#545,.T.);
#349=EDGE_CURVE('',#448,#449,#546,.T.);
#350=EDGE_CURVE('',#448,#450,#547,.T.);
#351=EDGE_CURVE('',#450,#451,#548,.T.);
#352=EDGE_CURVE('',#449,#451,#549,.T.);
#353=EDGE_CURVE('',#430,#431,#550,.T.);
#354=EDGE_CURVE('',#443,#437,#551,.T.);
#355=EDGE_CURVE('',#436,#417,#552,.T.);
#356=EDGE_CURVE('',#442,#438,#553,.T.);
#357=EDGE_CURVE('',#452,#441,#554,.T.);
#358=EDGE_CURVE('',#452,#439,#555,.T.);
#359=EDGE_CURVE('',#425,#453,#556,.T.);
#360=EDGE_CURVE('',#453,#415,#557,.T.);
#361=EDGE_CURVE('',#434,#448,#558,.T.);
#362=EDGE_CURVE('',#449,#435,#559,.T.);
#363=EDGE_CURVE('',#416,#428,#560,.T.);
#364=EDGE_CURVE('',#454,#453,#561,.T.);
#365=EDGE_CURVE('',#454,#455,#562,.T.);
#366=EDGE_CURVE('',#440,#455,#563,.T.);
#367=EDGE_CURVE('',#450,#433,#564,.T.);
#368=EDGE_CURVE('',#432,#451,#565,.T.);
#369=EDGE_CURVE('',#456,#452,#566,.T.);
#370=EDGE_CURVE('',#456,#457,#567,.T.);
#371=EDGE_CURVE('',#457,#458,#568,.T.);
#372=EDGE_CURVE('',#458,#418,#569,.T.);
#373=EDGE_CURVE('',#456,#455,#570,.T.);
#374=EDGE_CURVE('',#458,#424,#571,.T.);
#375=EDGE_CURVE('',#457,#454,#572,.T.);
#376=EDGE_CURVE('',#404,#400,#573,.T.);
#377=EDGE_CURVE('',#411,#430,#574,.T.);
#378=EDGE_CURVE('',#401,#406,#575,.T.);
#379=EDGE_CURVE('',#444,#448,#576,.F.);
#380=EDGE_CURVE('',#450,#447,#577,.F.);
#381=EDGE_CURVE('',#433,#446,#578,.T.);
#382=EDGE_CURVE('',#445,#434,#579,.F.);
#383=VERTEX_POINT('',#1201);
#384=VERTEX_POINT('',#1202);
#385=VERTEX_POINT('',#1204);
#386=VERTEX_POINT('',#1206);
#387=VERTEX_POINT('',#1210);
#388=VERTEX_POINT('',#1212);
#389=VERTEX_POINT('',#1216);
#390=VERTEX_POINT('',#1218);
#391=VERTEX_POINT('',#1225);
#392=VERTEX_POINT('',#1226);
#393=VERTEX_POINT('',#1228);
#394=VERTEX_POINT('',#1230);
#395=VERTEX_POINT('',#1234);
#396=VERTEX_POINT('',#1235);
#397=VERTEX_POINT('',#1237);
#398=VERTEX_POINT('',#1239);
#399=VERTEX_POINT('',#1259);
#400=VERTEX_POINT('',#1260);
#401=VERTEX_POINT('',#1262);
#402=VERTEX_POINT('',#1264);
#403=VERTEX_POINT('',#1268);
#404=VERTEX_POINT('',#1269);
#405=VERTEX_POINT('',#1271);
#406=VERTEX_POINT('',#1273);
#407=VERTEX_POINT('',#1277);
#408=VERTEX_POINT('',#1278);
#409=VERTEX_POINT('',#1280);
#410=VERTEX_POINT('',#1282);
#411=VERTEX_POINT('',#1286);
#412=VERTEX_POINT('',#1288);
#413=VERTEX_POINT('',#1290);
#414=VERTEX_POINT('',#1292);
#415=VERTEX_POINT('',#1294);
#416=VERTEX_POINT('',#1296);
#417=VERTEX_POINT('',#1302);
#418=VERTEX_POINT('',#1303);
#419=VERTEX_POINT('',#1305);
#420=VERTEX_POINT('',#1307);
#421=VERTEX_POINT('',#1309);
#422=VERTEX_POINT('',#1313);
#423=VERTEX_POINT('',#1315);
#424=VERTEX_POINT('',#1318);
#425=VERTEX_POINT('',#1320);
#426=VERTEX_POINT('',#1324);
#427=VERTEX_POINT('',#1326);
#428=VERTEX_POINT('',#1330);
#429=VERTEX_POINT('',#1331);
#430=VERTEX_POINT('',#1335);
#431=VERTEX_POINT('',#1339);
#432=VERTEX_POINT('',#1343);
#433=VERTEX_POINT('',#1344);
#434=VERTEX_POINT('',#1346);
#435=VERTEX_POINT('',#1348);
#436=VERTEX_POINT('',#1350);
#437=VERTEX_POINT('',#1352);
#438=VERTEX_POINT('',#1354);
#439=VERTEX_POINT('',#1356);
#440=VERTEX_POINT('',#1360);
#441=VERTEX_POINT('',#1362);
#442=VERTEX_POINT('',#1364);
#443=VERTEX_POINT('',#1366);
#444=VERTEX_POINT('',#1370);
#445=VERTEX_POINT('',#1371);
#446=VERTEX_POINT('',#1373);
#447=VERTEX_POINT('',#1375);
#448=VERTEX_POINT('',#1379);
#449=VERTEX_POINT('',#1380);
#450=VERTEX_POINT('',#1382);
#451=VERTEX_POINT('',#1384);
#452=VERTEX_POINT('',#1395);
#453=VERTEX_POINT('',#1399);
#454=VERTEX_POINT('',#1407);
#455=VERTEX_POINT('',#1409);
#456=VERTEX_POINT('',#1416);
#457=VERTEX_POINT('',#1418);
#458=VERTEX_POINT('',#1420);
#459=LINE('',#1200,#580);
#460=LINE('',#1203,#581);
#461=LINE('',#1205,#582);
#462=LINE('',#1207,#583);
#463=LINE('',#1209,#584);
#464=LINE('',#1211,#585);
#465=LINE('',#1213,#586);
#466=LINE('',#1215,#587);
#467=LINE('',#1217,#588);
#468=LINE('',#1219,#589);
#469=LINE('',#1221,#590);
#470=LINE('',#1222,#591);
#471=LINE('',#1224,#592);
#472=LINE('',#1227,#593);
#473=LINE('',#1229,#594);
#474=LINE('',#1231,#595);
#475=LINE('',#1233,#596);
#476=LINE('',#1236,#597);
#477=LINE('',#1238,#598);
#478=LINE('',#1240,#599);
#479=LINE('',#1242,#600);
#480=LINE('',#1243,#601);
#481=LINE('',#1245,#602);
#482=LINE('',#1247,#603);
#483=LINE('',#1250,#604);
#484=LINE('',#1251,#605);
#485=LINE('',#1253,#606);
#486=LINE('',#1255,#607);
#487=LINE('',#1258,#608);
#488=LINE('',#1261,#609);
#489=LINE('',#1263,#610);
#490=LINE('',#1265,#611);
#491=LINE('',#1267,#612);
#492=LINE('',#1270,#613);
#493=LINE('',#1272,#614);
#494=LINE('',#1274,#615);
#495=LINE('',#1276,#616);
#496=LINE('',#1279,#617);
#497=LINE('',#1281,#618);
#498=LINE('',#1283,#619);
#499=LINE('',#1285,#620);
#500=LINE('',#1287,#621);
#501=LINE('',#1289,#622);
#502=LINE('',#1291,#623);
#503=LINE('',#1293,#624);
#504=LINE('',#1295,#625);
#505=LINE('',#1297,#626);
#506=LINE('',#1298,#627);
#507=LINE('',#1299,#628);
#508=LINE('',#1301,#629);
#509=LINE('',#1304,#630);
#510=LINE('',#1306,#631);
#511=LINE('',#1308,#632);
#512=LINE('',#1310,#633);
#513=LINE('',#1312,#634);
#514=LINE('',#1314,#635);
#515=LINE('',#1316,#636);
#516=LINE('',#1317,#637);
#517=LINE('',#1319,#638);
#518=LINE('',#1321,#639);
#519=LINE('',#1323,#640);
#520=LINE('',#1325,#641);
#521=LINE('',#1327,#642);
#522=LINE('',#1329,#643);
#523=LINE('',#1332,#644);
#524=LINE('',#1333,#645);
#525=LINE('',#1334,#646);
#526=LINE('',#1336,#647);
#527=LINE('',#1338,#648);
#528=LINE('',#1340,#649);
#529=LINE('',#1342,#650);
#530=LINE('',#1345,#651);
#531=LINE('',#1347,#652);
#532=LINE('',#1349,#653);
#533=LINE('',#1351,#654);
#534=LINE('',#1353,#655);
#535=LINE('',#1355,#656);
#536=LINE('',#1357,#657);
#537=LINE('',#1359,#658);
#538=LINE('',#1361,#659);
#539=LINE('',#1363,#660);
#540=LINE('',#1365,#661);
#541=LINE('',#1367,#662);
#542=LINE('',#1369,#663);
#543=LINE('',#1372,#664);
#544=LINE('',#1374,#665);
#545=LINE('',#1376,#666);
#546=LINE('',#1378,#667);
#547=LINE('',#1381,#668);
#548=LINE('',#1383,#669);
#549=LINE('',#1385,#670);
#550=LINE('',#1387,#671);
#551=LINE('',#1389,#672);
#552=LINE('',#1390,#673);
#553=LINE('',#1392,#674);
#554=LINE('',#1394,#675);
#555=LINE('',#1396,#676);
#556=LINE('',#1398,#677);
#557=LINE('',#1400,#678);
#558=LINE('',#1402,#679);
#559=LINE('',#1403,#680);
#560=LINE('',#1405,#681);
#561=LINE('',#1406,#682);
#562=LINE('',#1408,#683);
#563=LINE('',#1410,#684);
#564=LINE('',#1412,#685);
#565=LINE('',#1413,#686);
#566=LINE('',#1415,#687);
#567=LINE('',#1417,#688);
#568=LINE('',#1419,#689);
#569=LINE('',#1421,#690);
#570=LINE('',#1423,#691);
#571=LINE('',#1425,#692);
#572=LINE('',#1426,#693);
#573=LINE('',#1428,#694);
#574=LINE('',#1430,#695);
#575=LINE('',#1432,#696);
#576=LINE('',#1439,#697);
#577=LINE('',#1440,#698);
#578=LINE('',#1442,#699);
#579=LINE('',#1444,#700);
#580=VECTOR('',#979,1000.);
#581=VECTOR('',#980,1000.);
#582=VECTOR('',#981,1000.);
#583=VECTOR('',#982,1000.);
#584=VECTOR('',#985,1000.);
#585=VECTOR('',#986,1000.);
#586=VECTOR('',#987,1000.);
#587=VECTOR('',#990,1000.);
#588=VECTOR('',#991,1000.);
#589=VECTOR('',#992,1000.);
#590=VECTOR('',#995,1000.);
#591=VECTOR('',#996,1000.);
#592=VECTOR('',#999,1000.);
#593=VECTOR('',#1000,1000.);
#594=VECTOR('',#1001,1000.);
#595=VECTOR('',#1002,1000.);
#596=VECTOR('',#1005,1000.);
#597=VECTOR('',#1006,1000.);
#598=VECTOR('',#1007,1000.);
#599=VECTOR('',#1008,1000.);
#600=VECTOR('',#1011,1000.);
#601=VECTOR('',#1012,1000.);
#602=VECTOR('',#1015,1000.);
#603=VECTOR('',#1018,1000.);
#604=VECTOR('',#1023,1000.);
#605=VECTOR('',#1024,1000.);
#606=VECTOR('',#1027,1000.);
#607=VECTOR('',#1030,1000.);
#608=VECTOR('',#1035,1000.);
#609=VECTOR('',#1036,1000.);
#610=VECTOR('',#1037,1000.);
#611=VECTOR('',#1038,1000.);
#612=VECTOR('',#1041,1000.);
#613=VECTOR('',#1042,1000.);
#614=VECTOR('',#1043,1000.);
#615=VECTOR('',#1044,1000.);
#616=VECTOR('',#1047,1000.);
#617=VECTOR('',#1048,1000.);
#618=VECTOR('',#1049,1000.);
#619=VECTOR('',#1050,1000.);
#620=VECTOR('',#1053,1000.);
#621=VECTOR('',#1054,1000.);
#622=VECTOR('',#1055,1000.);
#623=VECTOR('',#1056,1000.);
#624=VECTOR('',#1057,1000.);
#625=VECTOR('',#1058,1000.);
#626=VECTOR('',#1059,1000.);
#627=VECTOR('',#1060,1000.);
#628=VECTOR('',#1061,1000.);
#629=VECTOR('',#1064,1000.);
#630=VECTOR('',#1065,1000.);
#631=VECTOR('',#1066,1000.);
#632=VECTOR('',#1067,1000.);
#633=VECTOR('',#1068,1000.);
#634=VECTOR('',#1071,1000.);
#635=VECTOR('',#1072,1000.);
#636=VECTOR('',#1073,1000.);
#637=VECTOR('',#1074,1000.);
#638=VECTOR('',#1075,1000.);
#639=VECTOR('',#1076,1000.);
#640=VECTOR('',#1079,1000.);
#641=VECTOR('',#1080,1000.);
#642=VECTOR('',#1081,1000.);
#643=VECTOR('',#1084,1000.);
#644=VECTOR('',#1085,1000.);
#645=VECTOR('',#1086,1000.);
#646=VECTOR('',#1087,1000.);
#647=VECTOR('',#1088,1000.);
#648=VECTOR('',#1091,1000.);
#649=VECTOR('',#1092,1000.);
#650=VECTOR('',#1095,1000.);
#651=VECTOR('',#1096,1000.);
#652=VECTOR('',#1097,1000.);
#653=VECTOR('',#1098,1000.);
#654=VECTOR('',#1099,1000.);
#655=VECTOR('',#1100,1000.);
#656=VECTOR('',#1101,1000.);
#657=VECTOR('',#1102,1000.);
#658=VECTOR('',#1105,1000.);
#659=VECTOR('',#1106,1000.);
#660=VECTOR('',#1107,1000.);
#661=VECTOR('',#1108,1000.);
#662=VECTOR('',#1109,1000.);
#663=VECTOR('',#1112,1000.);
#664=VECTOR('',#1113,1000.);
#665=VECTOR('',#1114,1000.);
#666=VECTOR('',#1115,1000.);
#667=VECTOR('',#1118,1000.);
#668=VECTOR('',#1119,1000.);
#669=VECTOR('',#1120,1000.);
#670=VECTOR('',#1121,1000.);
#671=VECTOR('',#1124,1000.);
#672=VECTOR('',#1127,1000.);
#673=VECTOR('',#1128,1000.);
#674=VECTOR('',#1131,1000.);
#675=VECTOR('',#1134,1000.);
#676=VECTOR('',#1135,1000.);
#677=VECTOR('',#1138,1000.);
#678=VECTOR('',#1139,1000.);
#679=VECTOR('',#1142,1000.);
#680=VECTOR('',#1143,1000.);
#681=VECTOR('',#1146,1000.);
#682=VECTOR('',#1147,1000.);
#683=VECTOR('',#1148,1000.);
#684=VECTOR('',#1149,1000.);
#685=VECTOR('',#1152,1000.);
#686=VECTOR('',#1153,1000.);
#687=VECTOR('',#1156,1000.);
#688=VECTOR('',#1157,1000.);
#689=VECTOR('',#1158,1000.);
#690=VECTOR('',#1159,1000.);
#691=VECTOR('',#1162,1000.);
#692=VECTOR('',#1165,1000.);
#693=VECTOR('',#1166,1000.);
#694=VECTOR('',#1169,1000.);
#695=VECTOR('',#1172,1000.);
#696=VECTOR('',#1175,1000.);
#697=VECTOR('',#1188,1000.);
#698=VECTOR('',#1189,1000.);
#699=VECTOR('',#1192,1000.);
#700=VECTOR('',#1195,1000.);
#701=EDGE_LOOP('',(#20,#21,#22,#23));
#702=EDGE_LOOP('',(#24,#25,#26,#27));
#703=EDGE_LOOP('',(#28,#29,#30,#31));
#704=EDGE_LOOP('',(#32,#33,#34,#35));
#705=EDGE_LOOP('',(#36,#37,#38,#39));
#706=EDGE_LOOP('',(#40,#41,#42,#43));
#707=EDGE_LOOP('',(#44,#45,#46,#47));
#708=EDGE_LOOP('',(#48,#49,#50,#51));
#709=EDGE_LOOP('',(#52,#53,#54,#55));
#710=EDGE_LOOP('',(#56,#57,#58,#59));
#711=EDGE_LOOP('',(#60,#61,#62,#63));
#712=EDGE_LOOP('',(#64,#65,#66,#67));
#713=EDGE_LOOP('',(#68,#69,#70,#71));
#714=EDGE_LOOP('',(#72,#73,#74,#75));
#715=EDGE_LOOP('',(#76,#77,#78,#79));
#716=EDGE_LOOP('',(#80,#81,#82,#83));
#717=EDGE_LOOP('',(#84,#85,#86,#87));
#718=EDGE_LOOP('',(#88,#89,#90,#91,#92,#93,#94,#95));
#719=EDGE_LOOP('',(#96,#97,#98,#99));
#720=EDGE_LOOP('',(#100,#101,#102,#103,#104));
#721=EDGE_LOOP('',(#105,#106,#107,#108,#109,#110,#111,#112));
#722=EDGE_LOOP('',(#113,#114,#115,#116,#117));
#723=EDGE_LOOP('',(#118,#119,#120,#121,#122,#123));
#724=EDGE_LOOP('',(#124,#125,#126,#127));
#725=EDGE_LOOP('',(#128,#129,#130,#131,#132,#133,#134,#135));
#726=EDGE_LOOP('',(#136,#137,#138,#139,#140,#141,#142,#143));
#727=EDGE_LOOP('',(#144,#145,#146,#147));
#728=EDGE_LOOP('',(#148,#149,#150,#151));
#729=EDGE_LOOP('',(#152,#153,#154,#155));
#730=EDGE_LOOP('',(#156,#157,#158,#159,#160));
#731=EDGE_LOOP('',(#161,#162,#163,#164));
#732=EDGE_LOOP('',(#165,#166,#167,#168,#169));
#733=EDGE_LOOP('',(#170,#171,#172,#173));
#734=EDGE_LOOP('',(#174,#175,#176,#177));
#735=EDGE_LOOP('',(#178,#179,#180,#181,#182,#183,#184,#185));
#736=EDGE_LOOP('',(#186,#187,#188,#189));
#737=EDGE_LOOP('',(#190,#191,#192,#193,#194,#195,#196,#197,#198,#199,#200,
#201));
#738=EDGE_LOOP('',(#202,#203,#204,#205,#206));
#739=EDGE_LOOP('',(#207,#208,#209,#210,#211,#212));
#740=EDGE_LOOP('',(#213,#214,#215,#216));
#741=EDGE_LOOP('',(#217,#218,#219,#220,#221));
#742=EDGE_LOOP('',(#222,#223,#224,#225));
#743=EDGE_LOOP('',(#226,#227,#228,#229));
#744=EDGE_LOOP('',(#230,#231,#232,#233));
#745=EDGE_LOOP('',(#234,#235,#236,#237));
#746=EDGE_LOOP('',(#238,#239,#240,#241));
#747=EDGE_LOOP('',(#242,#243,#244,#245));
#748=EDGE_LOOP('',(#246,#247,#248,#249));
#749=EDGE_LOOP('',(#250,#251,#252,#253));
#750=EDGE_LOOP('',(#254,#255,#256,#257));
#751=EDGE_LOOP('',(#258,#259,#260,#261));
#752=FACE_BOUND('',#701,.T.);
#753=FACE_BOUND('',#702,.T.);
#754=FACE_BOUND('',#703,.T.);
#755=FACE_BOUND('',#704,.T.);
#756=FACE_BOUND('',#705,.T.);
#757=FACE_BOUND('',#706,.T.);
#758=FACE_BOUND('',#707,.T.);
#759=FACE_BOUND('',#708,.T.);
#760=FACE_BOUND('',#709,.T.);
#761=FACE_BOUND('',#710,.T.);
#762=FACE_BOUND('',#711,.T.);
#763=FACE_BOUND('',#712,.T.);
#764=FACE_BOUND('',#713,.T.);
#765=FACE_BOUND('',#714,.T.);
#766=FACE_BOUND('',#715,.T.);
#767=FACE_BOUND('',#716,.T.);
#768=FACE_BOUND('',#717,.T.);
#769=FACE_BOUND('',#718,.T.);
#770=FACE_BOUND('',#719,.T.);
#771=FACE_BOUND('',#720,.T.);
#772=FACE_BOUND('',#721,.T.);
#773=FACE_BOUND('',#722,.T.);
#774=FACE_BOUND('',#723,.T.);
#775=FACE_BOUND('',#724,.T.);
#776=FACE_BOUND('',#725,.T.);
#777=FACE_BOUND('',#726,.T.);
#778=FACE_BOUND('',#727,.T.);
#779=FACE_BOUND('',#728,.T.);
#780=FACE_BOUND('',#729,.T.);
#781=FACE_BOUND('',#730,.T.);
#782=FACE_BOUND('',#731,.T.);
#783=FACE_BOUND('',#732,.T.);
#784=FACE_BOUND('',#733,.T.);
#785=FACE_BOUND('',#734,.T.);
#786=FACE_BOUND('',#735,.T.);
#787=FACE_BOUND('',#736,.T.);
#788=FACE_BOUND('',#737,.T.);
#789=FACE_BOUND('',#738,.T.);
#790=FACE_BOUND('',#739,.T.);
#791=FACE_BOUND('',#740,.T.);
#792=FACE_BOUND('',#741,.T.);
#793=FACE_BOUND('',#742,.T.);
#794=FACE_BOUND('',#743,.T.);
#795=FACE_BOUND('',#744,.T.);
#796=FACE_BOUND('',#745,.T.);
#797=FACE_BOUND('',#746,.T.);
#798=FACE_BOUND('',#747,.T.);
#799=FACE_BOUND('',#748,.T.);
#800=FACE_BOUND('',#749,.T.);
#801=FACE_BOUND('',#750,.T.);
#802=FACE_BOUND('',#751,.T.);
#803=PLANE('',#925);
#804=PLANE('',#926);
#805=PLANE('',#927);
#806=PLANE('',#928);
#807=PLANE('',#929);
#808=PLANE('',#930);
#809=PLANE('',#931);
#810=PLANE('',#932);
#811=PLANE('',#933);
#812=PLANE('',#934);
#813=PLANE('',#935);
#814=PLANE('',#936);
#815=PLANE('',#937);
#816=PLANE('',#938);
#817=PLANE('',#939);
#818=PLANE('',#940);
#819=PLANE('',#941);
#820=PLANE('',#942);
#821=PLANE('',#943);
#822=PLANE('',#944);
#823=PLANE('',#945);
#824=PLANE('',#946);
#825=PLANE('',#947);
#826=PLANE('',#948);
#827=PLANE('',#949);
#828=PLANE('',#950);
#829=PLANE('',#951);
#830=PLANE('',#952);
#831=PLANE('',#953);
#832=PLANE('',#954);
#833=PLANE('',#955);
#834=PLANE('',#956);
#835=PLANE('',#957);
#836=PLANE('',#958);
#837=PLANE('',#959);
#838=PLANE('',#960);
#839=PLANE('',#961);
#840=PLANE('',#962);
#841=PLANE('',#963);
#842=PLANE('',#964);
#843=PLANE('',#965);
#844=PLANE('',#966);
#845=PLANE('',#967);
#846=PLANE('',#968);
#847=PLANE('',#969);
#848=PLANE('',#970);
#849=PLANE('',#971);
#850=PLANE('',#972);
#851=PLANE('',#973);
#852=PLANE('',#974);
#853=ADVANCED_FACE('',(#752),#803,.T.);
#854=ADVANCED_FACE('',(#753),#804,.T.);
#855=ADVANCED_FACE('',(#754),#805,.T.);
#856=ADVANCED_FACE('',(#755),#806,.T.);
#857=ADVANCED_FACE('',(#756),#807,.F.);
#858=ADVANCED_FACE('',(#757),#808,.T.);
#859=ADVANCED_FACE('',(#758),#809,.T.);
#860=ADVANCED_FACE('',(#759),#810,.T.);
#861=ADVANCED_FACE('',(#760),#811,.T.);
#862=ADVANCED_FACE('',(#761),#812,.T.);
#863=ADVANCED_FACE('',(#762),#813,.F.);
#864=ADVANCED_FACE('',(#763),#814,.F.);
#865=ADVANCED_FACE('',(#764),#815,.F.);
#866=ADVANCED_FACE('',(#765),#816,.F.);
#867=ADVANCED_FACE('',(#766),#817,.F.);
#868=ADVANCED_FACE('',(#767),#818,.T.);
#869=ADVANCED_FACE('',(#768),#819,.T.);
#870=ADVANCED_FACE('',(#769,#770),#820,.T.);
#871=ADVANCED_FACE('',(#771),#821,.T.);
#872=ADVANCED_FACE('',(#772),#822,.F.);
#873=ADVANCED_FACE('',(#773),#823,.F.);
#874=ADVANCED_FACE('',(#774),#824,.T.);
#875=ADVANCED_FACE('',(#775),#825,.T.);
#876=ADVANCED_FACE('',(#776),#826,.T.);
#877=ADVANCED_FACE('',(#777),#827,.T.);
#878=ADVANCED_FACE('',(#778),#828,.T.);
#879=ADVANCED_FACE('',(#779),#829,.T.);
#880=ADVANCED_FACE('',(#780),#830,.T.);
#881=ADVANCED_FACE('',(#781),#831,.T.);
#882=ADVANCED_FACE('',(#782),#832,.T.);
#883=ADVANCED_FACE('',(#783),#833,.T.);
#884=ADVANCED_FACE('',(#784),#834,.F.);
#885=ADVANCED_FACE('',(#785),#835,.T.);
#886=ADVANCED_FACE('',(#786),#836,.T.);
#887=ADVANCED_FACE('',(#787),#837,.F.);
#888=ADVANCED_FACE('',(#788),#838,.F.);
#889=ADVANCED_FACE('',(#789),#839,.T.);
#890=ADVANCED_FACE('',(#790),#840,.T.);
#891=ADVANCED_FACE('',(#791),#841,.F.);
#892=ADVANCED_FACE('',(#792),#842,.F.);
#893=ADVANCED_FACE('',(#793),#843,.F.);
#894=ADVANCED_FACE('',(#794),#844,.F.);
#895=ADVANCED_FACE('',(#795),#845,.T.);
#896=ADVANCED_FACE('',(#796),#846,.F.);
#897=ADVANCED_FACE('',(#797),#847,.F.);
#898=ADVANCED_FACE('',(#798),#848,.F.);
#899=ADVANCED_FACE('',(#799),#849,.F.);
#900=ADVANCED_FACE('',(#800),#850,.T.);
#901=ADVANCED_FACE('',(#801),#851,.F.);
#902=ADVANCED_FACE('',(#802),#852,.F.);
#903=CLOSED_SHELL('',(#853,#854,#855,#856,#857,#858,#859,#860,#861,#862,
#863,#864,#865,#866));
#904=CLOSED_SHELL('',(#867,#868,#869,#870,#871,#872,#873,#874,#875,#876,
#877,#878,#879,#880,#881,#882,#883,#884,#885,#886,#887,#888,#889,#890,#891,
#892,#893,#894,#895,#896,#897,#898,#899,#900,#901,#902));
#905=STYLED_ITEM('',(#907),#920);
#906=STYLED_ITEM('',(#908),#921);
#907=PRESENTATION_STYLE_ASSIGNMENT((#909));
#908=PRESENTATION_STYLE_ASSIGNMENT((#910));
#909=SURFACE_STYLE_USAGE(.BOTH.,#911);
#910=SURFACE_STYLE_USAGE(.BOTH.,#912);
#911=SURFACE_SIDE_STYLE('',(#913));
#912=SURFACE_SIDE_STYLE('',(#914));
#913=SURFACE_STYLE_FILL_AREA(#915);
#914=SURFACE_STYLE_FILL_AREA(#916);
#915=FILL_AREA_STYLE('',(#917));
#916=FILL_AREA_STYLE('',(#918));
#917=FILL_AREA_STYLE_COLOUR('',#919);
#918=FILL_AREA_STYLE_COLOUR('',#919);
#919=COLOUR_RGB('',0.506983280181885,0.531564235687256,0.550000011920929);
#920=MANIFOLD_SOLID_BREP('',#903);
#921=MANIFOLD_SOLID_BREP('',#904);
#922=SHAPE_DEFINITION_REPRESENTATION(#1452,#923);
#923=SHAPE_REPRESENTATION('Silicon Pad Mold',(#924),#1447);
#924=AXIS2_PLACEMENT_3D('',#1198,#975,#976);
#925=AXIS2_PLACEMENT_3D('',#1199,#977,#978);
#926=AXIS2_PLACEMENT_3D('',#1208,#983,#984);
#927=AXIS2_PLACEMENT_3D('',#1214,#988,#989);
#928=AXIS2_PLACEMENT_3D('',#1220,#993,#994);
#929=AXIS2_PLACEMENT_3D('',#1223,#997,#998);
#930=AXIS2_PLACEMENT_3D('',#1232,#1003,#1004);
#931=AXIS2_PLACEMENT_3D('',#1241,#1009,#1010);
#932=AXIS2_PLACEMENT_3D('',#1244,#1013,#1014);
#933=AXIS2_PLACEMENT_3D('',#1246,#1016,#1017);
#934=AXIS2_PLACEMENT_3D('',#1248,#1019,#1020);
#935=AXIS2_PLACEMENT_3D('',#1249,#1021,#1022);
#936=AXIS2_PLACEMENT_3D('',#1252,#1025,#1026);
#937=AXIS2_PLACEMENT_3D('',#1254,#1028,#1029);
#938=AXIS2_PLACEMENT_3D('',#1256,#1031,#1032);
#939=AXIS2_PLACEMENT_3D('',#1257,#1033,#1034);
#940=AXIS2_PLACEMENT_3D('',#1266,#1039,#1040);
#941=AXIS2_PLACEMENT_3D('',#1275,#1045,#1046);
#942=AXIS2_PLACEMENT_3D('',#1284,#1051,#1052);
#943=AXIS2_PLACEMENT_3D('',#1300,#1062,#1063);
#944=AXIS2_PLACEMENT_3D('',#1311,#1069,#1070);
#945=AXIS2_PLACEMENT_3D('',#1322,#1077,#1078);
#946=AXIS2_PLACEMENT_3D('',#1328,#1082,#1083);
#947=AXIS2_PLACEMENT_3D('',#1337,#1089,#1090);
#948=AXIS2_PLACEMENT_3D('',#1341,#1093,#1094);
#949=AXIS2_PLACEMENT_3D('',#1358,#1103,#1104);
#950=AXIS2_PLACEMENT_3D('',#1368,#1110,#1111);
#951=AXIS2_PLACEMENT_3D('',#1377,#1116,#1117);
#952=AXIS2_PLACEMENT_3D('',#1386,#1122,#1123);
#953=AXIS2_PLACEMENT_3D('',#1388,#1125,#1126);
#954=AXIS2_PLACEMENT_3D('',#1391,#1129,#1130);
#955=AXIS2_PLACEMENT_3D('',#1393,#1132,#1133);
#956=AXIS2_PLACEMENT_3D('',#1397,#1136,#1137);
#957=AXIS2_PLACEMENT_3D('',#1401,#1140,#1141);
#958=AXIS2_PLACEMENT_3D('',#1404,#1144,#1145);
#959=AXIS2_PLACEMENT_3D('',#1411,#1150,#1151);
#960=AXIS2_PLACEMENT_3D('',#1414,#1154,#1155);
#961=AXIS2_PLACEMENT_3D('',#1422,#1160,#1161);
#962=AXIS2_PLACEMENT_3D('',#1424,#1163,#1164);
#963=AXIS2_PLACEMENT_3D('',#1427,#1167,#1168);
#964=AXIS2_PLACEMENT_3D('',#1429,#1170,#1171);
#965=AXIS2_PLACEMENT_3D('',#1431,#1173,#1174);
#966=AXIS2_PLACEMENT_3D('',#1433,#1176,#1177);
#967=AXIS2_PLACEMENT_3D('',#1434,#1178,#1179);
#968=AXIS2_PLACEMENT_3D('',#1435,#1180,#1181);
#969=AXIS2_PLACEMENT_3D('',#1436,#1182,#1183);
#970=AXIS2_PLACEMENT_3D('',#1437,#1184,#1185);
#971=AXIS2_PLACEMENT_3D('',#1438,#1186,#1187);
#972=AXIS2_PLACEMENT_3D('',#1441,#1190,#1191);
#973=AXIS2_PLACEMENT_3D('',#1443,#1193,#1194);
#974=AXIS2_PLACEMENT_3D('',#1445,#1196,#1197);
#975=DIRECTION('',(0.,0.,1.));
#976=DIRECTION('',(1.,0.,0.));
#977=DIRECTION('',(-1.,0.,0.));
#978=DIRECTION('',(0.,0.,-1.));
#979=DIRECTION('',(0.,0.,-1.));
#980=DIRECTION('',(0.,1.,0.));
#981=DIRECTION('',(0.,0.,-1.));
#982=DIRECTION('',(0.,-1.,0.));
#983=DIRECTION('',(0.,1.,0.));
#984=DIRECTION('',(0.,0.,1.));
#985=DIRECTION('',(1.,0.,0.));
#986=DIRECTION('',(5.55111512312578E-17,2.67346169903322E-18,-1.));
#987=DIRECTION('',(-1.,0.,0.));
#988=DIRECTION('',(1.,-6.12323399573677E-17,5.55111512312578E-17));
#989=DIRECTION('',(-5.55111512312578E-17,-2.67346169903322E-18,1.));
#990=DIRECTION('',(-6.12323399573677E-17,-1.,0.));
#991=DIRECTION('',(5.55111512312578E-17,2.67346169903322E-18,-1.));
#992=DIRECTION('',(6.12323399573677E-17,1.,0.));
#993=DIRECTION('',(2.16840434497101E-16,-1.,0.));
#994=DIRECTION('',(-1.,-2.16840434497101E-16,0.));
#995=DIRECTION('',(-1.,-2.16840434497101E-16,0.));
#996=DIRECTION('',(1.,2.16840434497101E-16,0.));
#997=DIRECTION('',(0.,0.,-1.));
#998=DIRECTION('',(1.,0.,0.));
#999=DIRECTION('',(0.,-1.,0.));
#1000=DIRECTION('',(1.,2.16840434497101E-16,0.));
#1001=DIRECTION('',(6.12323399573677E-17,1.,0.));
#1002=DIRECTION('',(-1.,0.,0.));
#1003=DIRECTION('',(0.,0.,-1.));
#1004=DIRECTION('',(1.,0.,0.));
#1005=DIRECTION('',(1.,0.,0.));
#1006=DIRECTION('',(-6.12323399573677E-17,-1.,0.));
#1007=DIRECTION('',(-1.,-2.16840434497101E-16,0.));
#1008=DIRECTION('',(0.,1.,0.));
#1009=DIRECTION('',(0.,0.707106781186546,0.70710678118655));
#1010=DIRECTION('',(-1.,0.,0.));
#1011=DIRECTION('',(-0.577350269189627,0.577350269189627,-0.577350269189624));
#1012=DIRECTION('',(0.577350269189623,0.577350269189629,-0.577350269189626));
#1013=DIRECTION('',(0.707106781186549,-4.32978028117748E-17,0.707106781186546));
#1014=DIRECTION('',(6.12323399573677E-17,1.,0.));
#1015=DIRECTION('',(0.577350269189624,-0.577350269189627,-0.577350269189627));
#1016=DIRECTION('',(-0.707106781186546,0.,0.70710678118655));
#1017=DIRECTION('',(0.,-1.,0.));
#1018=DIRECTION('',(0.577350269189628,0.577350269189625,0.577350269189625));
#1019=DIRECTION('',(1.53329341668337E-16,-0.707106781186547,0.707106781186547));
#1020=DIRECTION('',(1.,2.16840434497101E-16,0.));
#1021=DIRECTION('',(0.707106781186546,0.,0.70710678118655));
#1022=DIRECTION('',(0.,1.,0.));
#1023=DIRECTION('',(0.577350269189628,0.577350269189625,-0.577350269189625));
#1024=DIRECTION('',(0.577350269189627,-0.577350269189627,-0.577350269189624));
#1025=DIRECTION('',(0.,-0.707106781186546,0.70710678118655));
#1026=DIRECTION('',(-1.,0.,0.));
#1027=DIRECTION('',(-0.577350269189623,-0.577350269189629,-0.577350269189626));
#1028=DIRECTION('',(-1.53329341668337E-16,0.707106781186547,0.707106781186547));
#1029=DIRECTION('',(-1.,-2.16840434497101E-16,0.));
#1030=DIRECTION('',(0.577350269189624,-0.577350269189627,0.577350269189627));
#1031=DIRECTION('',(-0.70710678118655,4.32978028117748E-17,0.707106781186546));
#1032=DIRECTION('',(-6.12323399573677E-17,-1.,0.));
#1033=DIRECTION('',(-0.984807753012208,0.,-0.17364817766693));
#1034=DIRECTION('',(-0.17364817766693,0.,0.984807753012208));
#1035=DIRECTION('',(-0.167900917937428,-0.255144817820942,0.952213423395663));
#1036=DIRECTION('',(0.,-1.,0.));
#1037=DIRECTION('',(0.167900917937428,-0.255144817820942,-0.952213423395662));
#1038=DIRECTION('',(0.,-1.,0.));
#1039=DIRECTION('',(-0.984807753012208,-6.12323399573677E-17,0.17364817766693));
#1040=DIRECTION('',(-0.17364817766693,8.06139048850795E-18,-0.984807753012208));
#1041=DIRECTION('',(0.167900917937428,-0.255144817820942,0.952213423395663));
#1042=DIRECTION('',(-6.2176947500746E-17,1.,0.));
#1043=DIRECTION('',(-0.167900917937428,-0.255144817820942,-0.952213423395663));
#1044=DIRECTION('',(6.2176947500746E-17,-1.,0.));
#1045=DIRECTION('',(0.984807753012208,0.,0.173648177666929));
#1046=DIRECTION('',(-0.173648177666929,0.,0.984807753012209));
#1047=DIRECTION('',(0.,1.,0.));
#1048=DIRECTION('',(0.167900917937427,0.255144817820943,-0.952213423395663));
#1049=DIRECTION('',(0.,1.,0.));
#1050=DIRECTION('',(-0.167900917937427,0.255144817820943,0.952213423395663));
#1051=DIRECTION('',(0.,0.,1.));
#1052=DIRECTION('',(-1.,0.,0.));
#1053=DIRECTION('',(1.,0.,0.));
#1054=DIRECTION('',(1.,0.,0.));
#1055=DIRECTION('',(-3.50048063752275E-16,1.,0.));
#1056=DIRECTION('',(1.,0.,0.));
#1057=DIRECTION('',(-7.07050159149938E-17,-1.,7.90078169524358E-49));
#1058=DIRECTION('',(1.,0.,0.));
#1059=DIRECTION('',(0.,-1.,0.));
#1060=DIRECTION('',(-1.,0.,0.));
#1061=DIRECTION('',(1.,0.,0.));
#1062=DIRECTION('',(1.,0.,0.));
#1063=DIRECTION('',(0.,0.,-1.));
#1064=DIRECTION('',(0.,-1.,0.));
#1065=DIRECTION('',(0.,0.,-1.));
#1066=DIRECTION('',(0.,-0.0871557427476582,0.996194698091746));
#1067=DIRECTION('',(0.,1.,0.));
#1068=DIRECTION('',(0.,0.,-1.));
#1069=DIRECTION('',(0.,-0.996194698091746,-0.0871557427476582));
#1070=DIRECTION('',(0.,0.0871557427476582,-0.996194698091746));
#1071=DIRECTION('',(0.667901388763886,0.0648656423573213,-0.741417684796393));
#1072=DIRECTION('',(1.,0.,0.));
#1073=DIRECTION('',(0.0868265938642476,0.0868265938642476,-0.992432509138967));
#1074=DIRECTION('',(-1.,0.,0.));
#1075=DIRECTION('',(-2.3632985372509E-17,0.0871557427476582,-0.996194698091746));
#1076=DIRECTION('',(0.498570974847158,-0.0755508581011306,0.863550259614423));
#1077=DIRECTION('',(0.,0.965925826289068,-0.258819045102521));
#1078=DIRECTION('',(0.,0.258819045102521,0.965925826289068));
#1079=DIRECTION('',(-0.656429074475714,0.195249915862577,0.728682606172684));
#1080=DIRECTION('',(1.,0.,0.));
#1081=DIRECTION('',(-0.694746590606866,-0.186156787897386,-0.694746590606866));
#1082=DIRECTION('',(0.,0.,1.));
#1083=DIRECTION('',(-1.,0.,0.));
#1084=DIRECTION('',(1.,0.,0.));
#1085=DIRECTION('',(0.,1.,0.));
#1086=DIRECTION('',(9.95874043042424E-17,1.,0.));
#1087=DIRECTION('',(0.,1.,0.));
#1088=DIRECTION('',(3.3199628154389E-16,1.,0.));
#1089=DIRECTION('',(0.,0.,1.));
#1090=DIRECTION('',(-1.,0.,0.));
#1091=DIRECTION('',(0.,1.,0.));
#1092=DIRECTION('',(-1.,0.,0.));
#1093=DIRECTION('',(-1.,0.,0.));
#1094=DIRECTION('',(0.,0.,-1.));
#1095=DIRECTION('',(0.,0.,-1.));
#1096=DIRECTION('',(0.,-1.,0.));
#1097=DIRECTION('',(0.,0.,-1.));
#1098=DIRECTION('',(0.,1.,0.));
#1099=DIRECTION('',(0.,0.,-1.));
#1100=DIRECTION('',(0.,1.,0.));
#1101=DIRECTION('',(0.,0.,1.));
#1102=DIRECTION('',(0.,1.,0.));
#1103=DIRECTION('',(0.996194698091745,0.,0.0871557427476581));
#1104=DIRECTION('',(-0.0871557427476581,0.,0.996194698091746));
#1105=DIRECTION('',(0.0868265938642476,-0.0868265938642474,-0.992432509138967));
#1106=DIRECTION('',(0.,1.,0.));
#1107=DIRECTION('',(0.0871557427476581,0.,-0.996194698091746));
#1108=DIRECTION('',(0.,-1.,0.));
#1109=DIRECTION('',(-0.0871557427476581,0.,0.996194698091746));
#1110=DIRECTION('',(0.,0.,-1.));
#1111=DIRECTION('',(1.,0.,0.));
#1112=DIRECTION('',(-1.,0.,0.));
#1113=DIRECTION('',(0.,1.,0.));
#1114=DIRECTION('',(1.,0.,0.));
#1115=DIRECTION('',(0.,-1.,0.));
#1116=DIRECTION('',(1.,0.,0.));
#1117=DIRECTION('',(0.,0.,1.));
#1118=DIRECTION('',(0.,0.,1.));
#1119=DIRECTION('',(0.,1.,0.));
#1120=DIRECTION('',(0.,0.,1.));
#1121=DIRECTION('',(0.,1.,0.));
#1122=DIRECTION('',(-0.707106781186548,0.,0.707106781186547));
#1123=DIRECTION('',(-0.707106781186547,0.,-0.707106781186548));
#1124=DIRECTION('',(0.694746590606866,-0.186156787897386,0.694746590606866));
#1125=DIRECTION('',(0.,1.,0.));
#1126=DIRECTION('',(0.,0.,1.));
#1127=DIRECTION('',(-1.,0.,0.));
#1128=DIRECTION('',(1.,0.,0.));
#1129=DIRECTION('',(0.,0.,1.));
#1130=DIRECTION('',(-1.,0.,0.));
#1131=DIRECTION('',(-1.,0.,0.));
#1132=DIRECTION('',(0.,-1.,0.));
#1133=DIRECTION('',(0.,0.,-1.));
#1134=DIRECTION('',(0.,0.,-1.));
#1135=DIRECTION('',(-1.,0.,0.));
#1136=DIRECTION('',(0.866025403784439,-6.12323399573676E-17,-0.5));
#1137=DIRECTION('',(-0.5,1.35748829496864E-17,-0.866025403784439));
#1138=DIRECTION('',(-2.71158097303279E-16,1.,-5.92124281327719E-16));
#1139=DIRECTION('',(-0.498570974847158,-0.0755508581011304,-0.863550259614423));
#1140=DIRECTION('',(0.,-1.,0.));
#1141=DIRECTION('',(0.,0.,-1.));
#1142=DIRECTION('',(1.,0.,0.));
#1143=DIRECTION('',(-1.,0.,0.));
#1144=DIRECTION('',(0.,-0.996194698091746,0.087155742747658));
#1145=DIRECTION('',(0.,-0.087155742747658,-0.996194698091746));
#1146=DIRECTION('',(-0.667901388763883,0.0648656423573214,0.741417684796396));
#1147=DIRECTION('',(2.3632985372509E-17,-0.087155742747658,-0.996194698091746));
#1148=DIRECTION('',(-1.,0.,0.));
#1149=DIRECTION('',(0.,0.087155742747658,0.996194698091746));
#1150=DIRECTION('',(0.,-1.,0.));
#1151=DIRECTION('',(0.,0.,-1.));
#1152=DIRECTION('',(-1.,0.,0.));
#1153=DIRECTION('',(1.,0.,0.));
#1154=DIRECTION('',(0.,0.,-1.));
#1155=DIRECTION('',(-1.,0.,0.));
#1156=DIRECTION('',(0.,-1.,0.));
#1157=DIRECTION('',(1.,0.,0.));
#1158=DIRECTION('',(2.4835159110592E-16,-1.,0.));
#1159=DIRECTION('',(-1.,1.6455548187749E-16,0.));
#1160=DIRECTION('',(1.,0.,0.));
#1161=DIRECTION('',(0.,0.,-1.));
#1162=DIRECTION('',(0.,0.,-1.));
#1163=DIRECTION('',(-1.,-2.71158097303279E-16,0.));
#1164=DIRECTION('',(2.71158097303279E-16,-1.,0.));
#1165=DIRECTION('',(0.,0.,-1.));
#1166=DIRECTION('',(0.,0.,-1.));
#1167=DIRECTION('',(0.,-0.965925826289068,-0.25881904510252));
#1168=DIRECTION('',(0.,0.25881904510252,-0.965925826289068));
#1169=DIRECTION('',(1.,0.,0.));
#1170=DIRECTION('',(0.,-0.965925826289068,-0.258819045102521));
#1171=DIRECTION('',(0.,0.258819045102521,-0.965925826289068));
#1172=DIRECTION('',(-0.656429074475711,-0.195249915862577,0.728682606172686));
#1173=DIRECTION('',(0.,0.965925826289068,-0.258819045102521));
#1174=DIRECTION('',(0.,0.258819045102521,0.965925826289068));
#1175=DIRECTION('',(-1.,0.,0.));
#1176=DIRECTION('',(-0.742982400816406,-2.600795508078E-16,-0.669310953202687));
#1177=DIRECTION('',(-0.669310953202687,0.,0.742982400816406));
#1178=DIRECTION('',(0.742982400816408,0.,0.669310953202684));
#1179=DIRECTION('',(0.669310953202684,0.,-0.742982400816408));
#1180=DIRECTION('',(-1.6455548187749E-16,-1.,0.));
#1181=DIRECTION('',(1.,-1.6455548187749E-16,0.));
#1182=DIRECTION('',(0.,1.,0.));
#1183=DIRECTION('',(0.,0.,1.));
#1184=DIRECTION('',(0.,0.,-1.));
#1185=DIRECTION('',(-1.,0.,0.));
#1186=DIRECTION('',(-0.707106781186547,0.,0.707106781186547));
#1187=DIRECTION('',(0.,1.,0.));
#1188=DIRECTION('',(-0.577350269189626,0.577350269189626,-0.577350269189626));
#1189=DIRECTION('',(0.577350269189626,0.577350269189626,0.577350269189626));
#1190=DIRECTION('',(0.,0.707106781186547,-0.707106781186547));
#1191=DIRECTION('',(-1.,0.,0.));
#1192=DIRECTION('',(0.577350269189633,-0.577350269189622,-0.577350269189622));
#1193=DIRECTION('',(0.,0.707106781186547,0.707106781186547));
#1194=DIRECTION('',(1.,0.,0.));
#1195=DIRECTION('',(0.577350269189633,0.577350269189622,-0.577350269189622));
#1196=DIRECTION('',(0.707106781186541,0.,0.707106781186554));
#1197=DIRECTION('',(0.,-1.,0.));
#1198=CARTESIAN_POINT('',(0.,0.,0.));
#1199=CARTESIAN_POINT('',(-18.9987760738904,13.4898780539133,0.8));
#1200=CARTESIAN_POINT('',(-18.9987760738904,13.2898780539133,0.8));
#1201=CARTESIAN_POINT('',(-18.9987760738904,13.2898780539133,1.7));
#1202=CARTESIAN_POINT('',(-18.9987760738904,13.2898780539133,0.300000000000001));
#1203=CARTESIAN_POINT('',(-18.9987760738904,24.4898780539133,1.7));
#1204=CARTESIAN_POINT('',(-18.9987760738904,24.4898780539133,1.7));
#1205=CARTESIAN_POINT('',(-18.9987760738904,24.4898780539133,0.8));
#1206=CARTESIAN_POINT('',(-18.9987760738904,24.4898780539133,0.300000000000001));
#1207=CARTESIAN_POINT('',(-18.9987760738904,13.4898780539133,0.300000000000001));
#1208=CARTESIAN_POINT('',(-16.,24.4898780539133,0.8));
#1209=CARTESIAN_POINT('',(-7.79877607389038,24.4898780539133,1.7));
#1210=CARTESIAN_POINT('',(-7.79877607389038,24.4898780539133,1.7));
#1211=CARTESIAN_POINT('',(-7.79877607389038,24.4898780539133,0.813318556678891));
#1212=CARTESIAN_POINT('',(-7.79877607389038,24.4898780539133,0.300000000000001));
#1213=CARTESIAN_POINT('',(-16.,24.4898780539133,0.300000000000001));
#1214=CARTESIAN_POINT('',(-7.79877607389038,23.4898780539133,0.813318556678891));
#1215=CARTESIAN_POINT('',(-7.79877607389038,13.2898780539133,1.7));
#1216=CARTESIAN_POINT('',(-7.79877607389038,13.2898780539133,1.7));
#1217=CARTESIAN_POINT('',(-7.79877607389038,13.2898780539133,0.813318556678891));
#1218=CARTESIAN_POINT('',(-7.79877607389038,13.2898780539133,0.300000000000001));
#1219=CARTESIAN_POINT('',(-7.79877607389038,23.4898780539133,0.300000000000001));
#1220=CARTESIAN_POINT('',(-8.,13.2898780539133,0.8));
#1221=CARTESIAN_POINT('',(-18.9987760738904,13.2898780539133,1.7));
#1222=CARTESIAN_POINT('',(-8.,13.2898780539133,0.300000000000001));
#1223=CARTESIAN_POINT('',(0.,12.,2.));
#1224=CARTESIAN_POINT('',(-18.6987760738904,13.2898780539133,2.));
#1225=CARTESIAN_POINT('',(-18.6987760738904,24.1898780539133,2.));
#1226=CARTESIAN_POINT('',(-18.6987760738904,13.5898780539133,2.));
#1227=CARTESIAN_POINT('',(-7.79877607389038,13.5898780539133,2.));
#1228=CARTESIAN_POINT('',(-8.09877607389038,13.5898780539133,2.));
#1229=CARTESIAN_POINT('',(-8.09877607389038,24.4898780539133,2.));
#1230=CARTESIAN_POINT('',(-8.09877607389038,24.1898780539133,2.));
#1231=CARTESIAN_POINT('',(-18.9987760738904,24.1898780539133,2.));
#1232=CARTESIAN_POINT('',(0.,12.,8.67361737988404E-16));
#1233=CARTESIAN_POINT('',(0.,24.1898780539133,8.67361737988404E-16));
#1234=CARTESIAN_POINT('',(-18.6987760738904,24.1898780539133,8.67361737988404E-16));
#1235=CARTESIAN_POINT('',(-8.09877607389038,24.1898780539133,8.67361737988404E-16));
#1236=CARTESIAN_POINT('',(-8.09877607389038,12.,8.67361737988404E-16));
#1237=CARTESIAN_POINT('',(-8.09877607389038,13.5898780539133,8.67361737988404E-16));
#1238=CARTESIAN_POINT('',(-3.44749848007956E-16,13.5898780539133,8.67361737988404E-16));
#1239=CARTESIAN_POINT('',(-18.6987760738904,13.5898780539133,8.67361737988404E-16));
#1240=CARTESIAN_POINT('',(-18.6987760738904,12.,8.67361737988404E-16));
#1241=CARTESIAN_POINT('',(-16.,24.4898780539133,1.7));
#1242=CARTESIAN_POINT('',(-15.3321094072237,20.8232113872466,5.36666666666666));
#1243=CARTESIAN_POINT('',(-10.5325173825936,21.7561367452101,4.43374130870319));
#1244=CARTESIAN_POINT('',(-7.79877607389038,23.4898780539133,1.7));
#1245=CARTESIAN_POINT('',(-11.1987760738904,16.6898780539133,5.10000000000001));
#1246=CARTESIAN_POINT('',(-18.9987760738904,13.4898780539133,1.7));
#1247=CARTESIAN_POINT('',(-18.9321094072237,13.3565447205799,1.76666666666667));
#1248=CARTESIAN_POINT('',(-8.,13.2898780539133,1.7));
#1249=CARTESIAN_POINT('',(-18.6987760738904,12.,8.67361737988404E-16));
#1250=CARTESIAN_POINT('',(-12.4658507159269,19.8228034118767,-6.23292535796347));
#1251=CARTESIAN_POINT('',(-14.6354833892526,20.1265853692755,-4.06329268463774));
#1252=CARTESIAN_POINT('',(-16.,24.4898780539133,0.300000000000001));
#1253=CARTESIAN_POINT('',(-10.5325173825936,21.7561367452101,-2.43374130870319));
#1254=CARTESIAN_POINT('',(-3.44749848007956E-16,13.5898780539133,8.67361737988404E-16));
#1255=CARTESIAN_POINT('',(-5.39918404926027,10.8902860292831,2.69959202463012));
#1256=CARTESIAN_POINT('',(-8.09877607389038,12.,8.67361737988404E-16));
#1257=CARTESIAN_POINT('',(4.68678206672212,7.43931936305366,3.97254990489117));
#1258=CARTESIAN_POINT('',(4.83099740404349,4.29202540030271,3.15466408423044));
#1259=CARTESIAN_POINT('',(5.21092281645682,4.8693659016326,0.999999999999995));
#1260=CARTESIAN_POINT('',(4.77010536468565,4.19949292055479,3.5));
#1261=CARTESIAN_POINT('',(4.77010536468565,7.43931936305366,3.5));
#1262=CARTESIAN_POINT('',(4.77010536468565,-5.52197704949094,3.5));
#1263=CARTESIAN_POINT('',(4.13695670627148,-4.55983460804902,7.09076447557962));
#1264=CARTESIAN_POINT('',(5.21092281645682,-6.19185003056875,0.999999999999995));
#1265=CARTESIAN_POINT('',(5.21092281645682,-10.8571223109337,1.));
#1266=CARTESIAN_POINT('',(3.96327299678664,-10.8571223109337,4.37942410932397));
#1267=CARTESIAN_POINT('',(4.59818944074366,2.99902314510921,7.98021419491374));
#1268=CARTESIAN_POINT('',(3.36738934705615,4.8693659016326,0.999999999999995));
#1269=CARTESIAN_POINT('',(3.80820679882732,4.19949292055479,3.5));
#1270=CARTESIAN_POINT('',(3.36738934705615,-10.8571223109337,1.));
#1271=CARTESIAN_POINT('',(3.36738934705615,-6.19185003056875,0.999999999999995));
#1272=CARTESIAN_POINT('',(3.72462581136177,-5.64898800382139,3.02598866532094));
#1273=CARTESIAN_POINT('',(3.80820679882732,-5.52197704949094,3.5));
#1274=CARTESIAN_POINT('',(3.80820679882732,-10.8571223109337,3.5));
#1275=CARTESIAN_POINT('',(1.26862397017076,-10.8571223109337,4.11371580426033));
#1276=CARTESIAN_POINT('',(1.81765607672021,-10.8571223109337,1.));
#1277=CARTESIAN_POINT('',(1.81765607672021,-6.18560234367555,1.));
#1278=CARTESIAN_POINT('',(1.81765607672021,4.8693659016326,1.));
#1279=CARTESIAN_POINT('',(0.630657543317234,3.06558466994395,7.73180320240121));
#1280=CARTESIAN_POINT('',(1.37683862494905,4.19949292055479,3.5));
#1281=CARTESIAN_POINT('',(1.37683862494905,-10.8571223109337,3.5));
#1282=CARTESIAN_POINT('',(1.37683862494905,-5.51572936259774,3.5));
#1283=CARTESIAN_POINT('',(1.50448881766482,-5.70970855917017,2.77605978278032));
#1284=CARTESIAN_POINT('',(2.90414518843274,-10.8571223109337,1.));
#1285=CARTESIAN_POINT('',(2.90414518843274,4.8693659016326,1.));
#1286=CARTESIAN_POINT('',(1.2886751345948,4.8693659016326,1.));
#1287=CARTESIAN_POINT('',(0.486987900907357,-6.18560234367555,1.));
#1288=CARTESIAN_POINT('',(1.28867513459481,-6.18560234367555,1.));
#1289=CARTESIAN_POINT('',(1.28867513459481,-7.30092512418937,1.));
#1290=CARTESIAN_POINT('',(1.28867513459481,-7.0862647374163,1.));
#1291=CARTESIAN_POINT('',(2.90414518843274,-7.0862647374163,1.));
#1292=CARTESIAN_POINT('',(6.66656081756484,-7.0862647374163,1.));
#1293=CARTESIAN_POINT('',(6.66656081756485,11.5711856588076,1.));
#1294=CARTESIAN_POINT('',(6.66656081756484,5.76378060848001,1.));
#1295=CARTESIAN_POINT('',(2.90414518843274,5.76378060848001,1.));
#1296=CARTESIAN_POINT('',(1.2886751345948,5.76378060848001,1.));
#1297=CARTESIAN_POINT('',(1.2886751345948,5.99384521242247,1.));
#1298=CARTESIAN_POINT('',(4.62072594216369,4.8693659016326,0.999999999999995));
#1299=CARTESIAN_POINT('',(0.486987900907357,-6.19185003056875,0.999999999999995));
#1300=CARTESIAN_POINT('',(-7.71833894050356,-6.55870352045628,7.));
#1301=CARTESIAN_POINT('',(-7.71833894050356,-6.55870352045628,8.));
#1302=CARTESIAN_POINT('',(-7.71833894050356,-6.26124206446814,8.));
#1303=CARTESIAN_POINT('',(-7.71833894050356,-7.64619218398221,8.));
#1304=CARTESIAN_POINT('',(-7.71833894050356,-7.64619218398221,56.8975206391703));
#1305=CARTESIAN_POINT('',(-7.71833894050356,-7.64619218398221,7.4));
#1306=CARTESIAN_POINT('',(-7.71833894050356,-7.06078385614853,0.708752194388985));
#1307=CARTESIAN_POINT('',(-7.71833894050356,-7.55870352045628,6.4));
#1308=CARTESIAN_POINT('',(-7.71833894050356,-10.8571223109337,6.4));
#1309=CARTESIAN_POINT('',(-7.71833894050356,-6.26124206446814,6.4));
#1310=CARTESIAN_POINT('',(-7.71833894050356,-6.26124206446814,7.));
#1311=CARTESIAN_POINT('',(0.404145188432738,-7.06078385614853,0.708752194388985));
#1312=CARTESIAN_POINT('',(1.03942123441005,-7.1104719252101,1.27668942258599));
#1313=CARTESIAN_POINT('',(-0.513012099092642,-7.26124206446814,3.));
#1314=CARTESIAN_POINT('',(0.404145188432738,-7.26124206446814,3.));
#1315=CARTESIAN_POINT('',(-7.42087748451542,-7.26124206446814,3.));
#1316=CARTESIAN_POINT('',(-7.68973244988702,-7.53009702983975,6.07302631605458));
#1317=CARTESIAN_POINT('',(0.404145188432738,-7.64619218398221,7.4));
#1318=CARTESIAN_POINT('',(8.16541294894481,-7.64619218398221,7.4));
#1319=CARTESIAN_POINT('',(8.16541294894481,-7.06078385614853,0.708752194388985));
#1320=CARTESIAN_POINT('',(8.16541294894481,-7.31339301083249,3.59608804458301));
#1321=CARTESIAN_POINT('',(4.13839106423111,-6.7031590134053,-3.37891846293291));
#1322=CARTESIAN_POINT('',(0.486987900907357,-16.8790424136259,-38.9084616487474));
#1323=CARTESIAN_POINT('',(21.4031352053326,-12.1684979665872,-21.3284704410878));
#1324=CARTESIAN_POINT('',(-0.513012099092644,-5.6497039588133,3.));
#1325=CARTESIAN_POINT('',(0.486987900907357,-5.51572936259774,3.5));
#1326=CARTESIAN_POINT('',(-0.0130120990926405,-5.51572936259774,3.5));
#1327=CARTESIAN_POINT('',(-1.12994821621298,-5.81501149317729,2.38306388287966));
#1328=CARTESIAN_POINT('',(-7.59585481156726,-10.8571223109337,3.));
#1329=CARTESIAN_POINT('',(4.40414518843274,5.93875793553185,3.));
#1330=CARTESIAN_POINT('',(-0.513012099092641,5.93875793553186,3.));
#1331=CARTESIAN_POINT('',(-7.42087748451542,5.93875793553185,3.));
#1332=CARTESIAN_POINT('',(-7.42087748451542,-10.8571223109337,3.));
#1333=CARTESIAN_POINT('',(-0.513012099092642,-7.26124206446814,3.));
#1334=CARTESIAN_POINT('',(-0.513012099092643,-10.8571223109337,3.));
#1335=CARTESIAN_POINT('',(-0.513012099092642,4.33346751677035,3.00000000000001));
#1336=CARTESIAN_POINT('',(-0.513012099092641,5.93875793553186,3.));
#1337=CARTESIAN_POINT('',(0.404145188432738,-10.8571223109337,3.5));
#1338=CARTESIAN_POINT('',(-0.0130120990926408,-10.8571223109337,3.5));
#1339=CARTESIAN_POINT('',(-0.0130120990926412,4.19949292055479,3.5));
#1340=CARTESIAN_POINT('',(4.62072594216369,4.19949292055479,3.5));
#1341=CARTESIAN_POINT('',(-18.8833434750932,-5.99999999999999,0.529938912587577));
#1342=CARTESIAN_POINT('',(-18.8833434750932,8.43875793553186,3.46944695195361E-15));
#1343=CARTESIAN_POINT('',(-18.8833434750932,8.43875793553186,8.));
#1344=CARTESIAN_POINT('',(-18.8833434750932,8.43875793553186,0.300000000000003));
#1345=CARTESIAN_POINT('',(-18.8833434750932,-5.99999999999999,0.300000000000003));
#1346=CARTESIAN_POINT('',(-18.8833434750932,-9.76124206446814,0.300000000000003));
#1347=CARTESIAN_POINT('',(-18.8833434750932,-9.76124206446814,3.46944695195361E-15));
#1348=CARTESIAN_POINT('',(-18.8833434750932,-9.76124206446814,8.));
#1349=CARTESIAN_POINT('',(-18.8833434750932,-0.0612420644681491,8.));
#1350=CARTESIAN_POINT('',(-18.8833434750932,-6.26124206446814,8.));
#1351=CARTESIAN_POINT('',(-18.8833434750932,-6.26124206446814,0.529938912587577));
#1352=CARTESIAN_POINT('',(-18.8833434750932,-6.26124206446814,6.00000000000001));
#1353=CARTESIAN_POINT('',(-18.8833434750932,-5.99999999999999,6.00000000000001));
#1354=CARTESIAN_POINT('',(-18.8833434750932,4.93875793553186,6.00000000000001));
#1355=CARTESIAN_POINT('',(-18.8833434750932,4.93875793553186,0.529938912587577));
#1356=CARTESIAN_POINT('',(-18.8833434750932,4.93875793553186,8.));
#1357=CARTESIAN_POINT('',(-18.8833434750932,-0.0612420644681491,8.));
#1358=CARTESIAN_POINT('',(-7.65686383149062,-10.8571223109337,5.69733628866423));
#1359=CARTESIAN_POINT('',(-7.52846301795165,6.04634346896809,4.2297082741966));
#1360=CARTESIAN_POINT('',(-7.71833894050356,6.23621939152,6.4));
#1361=CARTESIAN_POINT('',(-7.71833894050356,-10.8571223109337,6.4));
#1362=CARTESIAN_POINT('',(-7.71833894050356,4.93875793553186,6.4));
#1363=CARTESIAN_POINT('',(-7.65686383149062,4.93875793553186,5.69733628866423));
#1364=CARTESIAN_POINT('',(-7.68334347509319,4.93875793553186,6.00000000000001));
#1365=CARTESIAN_POINT('',(-7.68334347509319,-10.8571223109337,6.00000000000001));
#1366=CARTESIAN_POINT('',(-7.68334347509319,-6.26124206446814,6.00000000000001));
#1367=CARTESIAN_POINT('',(-7.65686383149062,-6.26124206446814,5.69733628866423));
#1368=CARTESIAN_POINT('',(8.,-5.99999999999999,3.46944695195361E-15));
#1369=CARTESIAN_POINT('',(8.,-9.46124206446814,3.46944695195361E-15));
#1370=CARTESIAN_POINT('',(12.0881444949786,-9.46124206446814,3.46944695195361E-15));
#1371=CARTESIAN_POINT('',(-18.5833434750932,-9.46124206446814,3.46944695195361E-15));
#1372=CARTESIAN_POINT('',(-18.5833434750932,-5.99999999999999,3.46944695195361E-15));
#1373=CARTESIAN_POINT('',(-18.5833434750932,8.13875793553185,3.46944695195361E-15));
#1374=CARTESIAN_POINT('',(12.3881444949786,8.13875793553185,3.46944695195361E-15));
#1375=CARTESIAN_POINT('',(12.0881444949786,8.13875793553185,3.46944695195361E-15));
#1376=CARTESIAN_POINT('',(12.0881444949786,-5.99999999999999,3.46944695195361E-15));
#1377=CARTESIAN_POINT('',(12.3881444949786,-5.99999999999999,6.17980490199142));
#1378=CARTESIAN_POINT('',(12.3881444949786,-9.76124206446814,6.87980490199142));
#1379=CARTESIAN_POINT('',(12.3881444949786,-9.76124206446814,0.300000000000003));
#1380=CARTESIAN_POINT('',(12.3881444949786,-9.76124206446814,8.));
#1381=CARTESIAN_POINT('',(12.3881444949786,-5.99999999999999,0.300000000000003));
#1382=CARTESIAN_POINT('',(12.3881444949786,8.43875793553186,0.300000000000003));
#1383=CARTESIAN_POINT('',(12.3881444949786,8.43875793553186,6.87980490199142));
#1384=CARTESIAN_POINT('',(12.3881444949786,8.43875793553186,8.));
#1385=CARTESIAN_POINT('',(12.3881444949786,-5.99999999999999,8.));
#1386=CARTESIAN_POINT('',(-0.454433455329952,-10.8571223109337,3.05857864376269));
#1387=CARTESIAN_POINT('',(1.50816276979566,3.79189534288965,5.02117486888831));
#1388=CARTESIAN_POINT('',(-6.46688973378006,-6.26124206446814,5.7));
#1389=CARTESIAN_POINT('',(-6.46688973378006,-6.26124206446814,6.00000000000001));
#1390=CARTESIAN_POINT('',(-7.71833894050356,-6.26124206446814,8.));
#1391=CARTESIAN_POINT('',(-6.46688973378006,-3.38155490460312,6.00000000000001));
#1392=CARTESIAN_POINT('',(-6.46688973378006,4.93875793553186,6.00000000000001));
#1393=CARTESIAN_POINT('',(-6.46688973378006,4.93875793553186,4.5784678529071));
#1394=CARTESIAN_POINT('',(-7.71833894050356,4.93875793553186,7.));
#1395=CARTESIAN_POINT('',(-7.71833894050356,4.93875793553186,8.));
#1396=CARTESIAN_POINT('',(-7.71833894050356,4.93875793553186,8.));
#1397=CARTESIAN_POINT('',(9.07977230288971,11.5711856588076,5.17980490199142));
#1398=CARTESIAN_POINT('',(8.16541294894481,11.5711856588076,3.596088044583));
#1399=CARTESIAN_POINT('',(8.16541294894481,5.9909088818962,3.596088044583));
#1400=CARTESIAN_POINT('',(9.28474808176735,6.16052711892536,5.53483336532849));
#1401=CARTESIAN_POINT('',(0.,-9.76124206446814,0.));
#1402=CARTESIAN_POINT('',(0.,-9.76124206446814,0.300000000000003));
#1403=CARTESIAN_POINT('',(0.404145188432738,-9.76124206446814,8.));
#1404=CARTESIAN_POINT('',(0.404145188432738,5.73829972721224,0.708752194388985));
#1405=CARTESIAN_POINT('',(1.03942123441005,5.78798779627381,1.27668942258598));
#1406=CARTESIAN_POINT('',(8.16541294894481,5.73829972721224,0.708752194388986));
#1407=CARTESIAN_POINT('',(8.16541294894481,6.32370805504592,7.4));
#1408=CARTESIAN_POINT('',(0.404145188432738,6.32370805504592,7.4));
#1409=CARTESIAN_POINT('',(-7.71833894050356,6.32370805504592,7.4));
#1410=CARTESIAN_POINT('',(-7.71833894050356,5.73829972721224,0.708752194388985));
#1411=CARTESIAN_POINT('',(0.,8.43875793553186,0.));
#1412=CARTESIAN_POINT('',(-18.8833434750932,8.43875793553186,0.300000000000003));
#1413=CARTESIAN_POINT('',(0.,8.43875793553186,8.));
#1414=CARTESIAN_POINT('',(0.404145188432738,-0.0612420644681491,8.));
#1415=CARTESIAN_POINT('',(-7.71833894050356,7.93875793553185,8.));
#1416=CARTESIAN_POINT('',(-7.71833894050356,6.32370805504592,8.));
#1417=CARTESIAN_POINT('',(13.3654129489448,6.32370805504592,8.));
#1418=CARTESIAN_POINT('',(8.16541294894481,6.32370805504592,8.));
#1419=CARTESIAN_POINT('',(8.16541294894481,6.32370805504592,8.));
#1420=CARTESIAN_POINT('',(8.16541294894481,-7.64619218398221,8.));
#1421=CARTESIAN_POINT('',(13.3654129489448,-7.64619218398221,8.));
#1422=CARTESIAN_POINT('',(-7.71833894050356,7.93875793553185,7.));
#1423=CARTESIAN_POINT('',(-7.71833894050356,6.32370805504592,56.8975206391703));
#1424=CARTESIAN_POINT('',(8.16541294894481,6.23621939152,6.46475274616685));
#1425=CARTESIAN_POINT('',(8.16541294894481,-7.64619218398221,56.8975206391703));
#1426=CARTESIAN_POINT('',(8.16541294894481,6.32370805504592,56.8975206391703));
#1427=CARTESIAN_POINT('',(4.62072594216369,15.5625930868144,-38.9076671519753));
#1428=CARTESIAN_POINT('',(4.62072594216369,4.19949292055479,3.5));
#1429=CARTESIAN_POINT('',(4.62072594216369,15.5625930868144,-38.9076671519753));
#1430=CARTESIAN_POINT('',(23.1839520148372,11.3819521579157,-23.3053027971233));
#1431=CARTESIAN_POINT('',(0.486987900907357,-16.8850772157506,-38.9076671519753));
#1432=CARTESIAN_POINT('',(0.486987900907357,-5.52197704949094,3.5));
#1433=CARTESIAN_POINT('',(21.5273014982614,-7.30092512418936,-21.4663037904141));
#1434=CARTESIAN_POINT('',(23.3791216934161,5.99384521242247,-23.5219549162367));
#1435=CARTESIAN_POINT('',(13.3654129489448,-7.64619218398221,56.8975206391703));
#1436=CARTESIAN_POINT('',(13.3654129489448,6.32370805504592,56.8975206391703));
#1437=CARTESIAN_POINT('',(5.27234023007383,-5.94094160759466,3.5));
#1438=CARTESIAN_POINT('',(12.3881444949786,-5.99999999999999,0.300000000000003));
#1439=CARTESIAN_POINT('',(11.1343971401558,-8.50749470964543,-0.953747354822713));
#1440=CARTESIAN_POINT('',(10.725429663319,6.77604310387233,-1.36271483165952));
#1441=CARTESIAN_POINT('',(8.,8.13875793553185,3.46944695195361E-15));
#1442=CARTESIAN_POINT('',(-9.72222898339525,-0.722356556165924,-8.86111449169778));
#1443=CARTESIAN_POINT('',(0.,-9.76124206446814,0.300000000000003));
#1444=CARTESIAN_POINT('',(-12.588895650062,-3.46679423943704,-5.9944478250311));
#1445=CARTESIAN_POINT('',(-18.8833434750932,-5.99999999999999,0.300000000000003));
#1446=MECHANICAL_DESIGN_GEOMETRIC_PRESENTATION_REPRESENTATION('',(#905,
#906),#1447);
#1447=(
GEOMETRIC_REPRESENTATION_CONTEXT(3)
GLOBAL_UNCERTAINTY_ASSIGNED_CONTEXT((#1448))
GLOBAL_UNIT_ASSIGNED_CONTEXT((#1451,#1450,#1449))
REPRESENTATION_CONTEXT('Silicon Pad Mold','TOP_LEVEL_ASSEMBLY_PART')
);
#1448=UNCERTAINTY_MEASURE_WITH_UNIT(LENGTH_MEASURE(0.005),#1451,
'DISTANCE_ACCURACY_VALUE','Maximum Tolerance applied to model');
#1449=(
NAMED_UNIT(*)
SI_UNIT($,.STERADIAN.)
SOLID_ANGLE_UNIT()
);
#1450=(
NAMED_UNIT(*)
PLANE_ANGLE_UNIT()
SI_UNIT($,.RADIAN.)
);
#1451=(
LENGTH_UNIT()
NAMED_UNIT(*)
SI_UNIT(.MILLI.,.METRE.)
);
#1452=PRODUCT_DEFINITION_SHAPE('','',#1453);
#1453=PRODUCT_DEFINITION('','',#1455,#1454);
#1454=PRODUCT_DEFINITION_CONTEXT('',#1461,'design');
#1455=PRODUCT_DEFINITION_FORMATION_WITH_SPECIFIED_SOURCE('','',#1457,
 .NOT_KNOWN.);
#1456=PRODUCT_RELATED_PRODUCT_CATEGORY('','',(#1457));
#1457=PRODUCT('Silicon Pad Mold','Silicon Pad Mold','Silicon Pad Mold',
(#1459));
#1458=PRODUCT_CATEGORY('','');
#1459=PRODUCT_CONTEXT('',#1461,'mechanical');
#1460=APPLICATION_PROTOCOL_DEFINITION('international standard',
'automotive_design',2010,#1461);
#1461=APPLICATION_CONTEXT(
'core data for automotive mechanical design processes');
ENDSEC;
END-ISO-10303-21;
